<svg id="Outlined" xmlns="http://www.w3.org/2000/svg" width="34" height="54" viewBox="0 0 34 54"><g id="appletv_gen3_chnv"><rect id="box_" width="34" height="54" fill="none"/><path id="art_" d="M30.5035,42.61A6.8511,6.8511,0,0,0,34,40.9728v4.73c0,4.23-5.0059,4.24-8.386,4.2977H8.386C5.0059,49.9421,0,49.9323,0,45.7023V40.9764A6.8817,6.8817,0,0,0,3.4965,42.61,21.8324,21.8324,0,0,0,8.0039,43H25.9961A21.8324,21.8324,0,0,0,30.5035,42.61Zm3.475-4.3211c.4343,3.4927-5.8346,3.7371-7.9824,3.7112H8.0039c-2.1484.0258-8.4159-.2184-7.9824-3.7112A86.2337,86.2337,0,0,1,2.1736,29.52C3.7522,26.5737,8.2227,27.107,11.27,27l11.46,0c3.0469.1076,7.5162-.4268,9.0963,2.52.57,1.6125,1.1657,4.4606,1.7323,6.679A13.47,13.47,0,0,1,33.9785,38.2888Zm-18.272-2.4233c.5529-.0095.7347-.1647,1.3636-.1647s.8059.1647,1.3532.16a2.112,2.112,0,0,0,1.2835-.4942,2.2512,2.2512,0,0,0,.5788-.5624c-.6562-.1386-1.0736-.45-1.0668-.7917.0187-.299.3544-.5732.8885-.7283-.6272-.5459-2.3617-.3283-2.9847-.2-.8018-.1735-2.3407-.28-2.9934.3121C12.9533,34.3434,14.5477,35.8516,15.7065,35.8655Zm1.3826-2.9966a2.4768,2.4768,0,0,0,1.2-.2618c.3044-.1658.46-.378.4362-.5914a2.89,2.89,0,0,0-1.1807.2815C17.2378,32.4528,17.0732,32.6586,17.0891,32.8689Z" fill="#1d1d1f"/></g></svg>